<svg xmlns="http://www.w3.org/2000/svg"  viewBox="0 0 64 64" width="64px" height="64px" baseProfile="basic"><linearGradient id="QdB3-Iph3jBLjEqxCoXEqa" x1="40.04" x2="40.04" y1="21.84" y2="58.93" gradientUnits="userSpaceOnUse"><stop offset="0" stop-color="#6dc7ff"/><stop offset="1" stop-color="#e6abff"/></linearGradient><path fill="url(#QdB3-Iph3jBLjEqxCoXEqa)" d="M55.97,34.96l-4.32,4.31c-1.67,7.65-7.68,13.67-15.33,15.34L32,58.93l-4.32-4.32	c-1.24-0.27-2.43-0.67-3.57-1.16l4.19-4.19c1.18,0.31,2.42,0.48,3.7,0.48c8.17,0,14.79-6.62,14.79-14.78c0-2.94-0.87-5.66-2.34-7.96	l2.78-5.16c2.15,2.48,3.7,5.48,4.42,8.8L55.97,34.96z"/><linearGradient id="QdB3-Iph3jBLjEqxCoXEqb" x1="23.425" x2="23.425" y1="10.99" y2="48.84" gradientUnits="userSpaceOnUse"><stop offset="0" stop-color="#6dc7ff"/><stop offset="1" stop-color="#e6abff"/></linearGradient><path fill="url(#QdB3-Iph3jBLjEqxCoXEqb)" d="M38.82,16.03l-3.75,4.47c-0.99-0.21-2.02-0.33-3.07-0.33c-8.17,0-14.79,6.62-14.79,14.79	c0,3.21,1.03,6.18,2.77,8.6l-2.52,5.28c-2.5-2.62-4.31-5.9-5.11-9.57l-4.32-4.31l4.32-4.32c1.67-7.65,7.68-13.66,15.33-15.34	L32,10.99l4.32,4.31C37.17,15.49,38.01,15.74,38.82,16.03z"/><linearGradient id="QdB3-Iph3jBLjEqxCoXEqc" x1="32" x2="32" y1="2.025" y2="59.93" gradientUnits="userSpaceOnUse"><stop offset="0" stop-color="#1a6dff"/><stop offset="1" stop-color="#c822ff"/></linearGradient><path fill="url(#QdB3-Iph3jBLjEqxCoXEqc)" d="M32.869,27.786c2.47,0.297,4.551,1.837,5.608,3.978L54.492,2.025L32.869,27.786z M25.713,38.514l-8.297,17.388l13.766-13.767C28.833,41.87,26.827,40.479,25.713,38.514z M26.489,33.836l7.393-1.904l1.232,7.953	L32,35.143L26.489,33.836z M32,59.93c-0.256,0-0.512-0.098-0.707-0.293l-4.116-4.115c-1.145-0.269-2.308-0.656-3.462-1.152	c-0.305-0.131-0.524-0.405-0.587-0.73s0.041-0.661,0.275-0.896l4.189-4.19c0.251-0.253,0.618-0.352,0.961-0.26	c1.13,0.297,2.289,0.447,3.446,0.447c7.604,0,13.79-6.182,13.79-13.78c0-2.621-0.755-5.188-2.183-7.422	c-0.195-0.306-0.21-0.693-0.037-1.013l2.78-5.16c0.155-0.289,0.443-0.483,0.771-0.52c0.326-0.035,0.649,0.092,0.865,0.339	c2.234,2.579,3.813,5.669,4.576,8.953l4.114,4.115c0.188,0.188,0.293,0.442,0.293,0.708c0,0.265-0.105,0.52-0.294,0.707	l-4.114,4.104c-1.817,7.797-7.949,13.934-15.738,15.75l-4.116,4.114C32.512,59.832,32.256,59.93,32,59.93z M25.902,53.072	c0.669,0.23,1.334,0.418,1.99,0.562c0.188,0.04,0.358,0.134,0.494,0.27L32,57.516l3.613-3.612c0.136-0.136,0.307-0.229,0.494-0.27	c7.262-1.586,12.979-7.308,14.566-14.577c0.04-0.188,0.135-0.359,0.271-0.495l3.61-3.603l-3.611-3.612	c-0.136-0.136-0.229-0.308-0.271-0.495c-0.563-2.591-1.687-5.057-3.278-7.208l-1.791,3.324c1.433,2.435,2.187,5.186,2.187,7.992	c0,8.701-7.083,15.78-15.79,15.78c-1.137,0-2.274-0.126-3.391-0.376L25.902,53.072z M17.46,49.84c-0.271,0-0.533-0.11-0.724-0.31	c-2.621-2.747-4.448-6.115-5.298-9.758l-4.114-4.104C7.136,35.48,7.03,35.226,7.03,34.961c0-0.266,0.105-0.521,0.293-0.708	l4.114-4.116c1.815-7.786,7.947-13.921,15.74-15.748l4.116-4.106c0.391-0.389,1.021-0.389,1.412,0l4.118,4.108	c0.765,0.183,1.548,0.417,2.333,0.698c0.308,0.11,0.543,0.364,0.628,0.68c0.086,0.316,0.012,0.653-0.199,0.904l-3.75,4.47	c-0.237,0.284-0.617,0.411-0.973,0.336C33.898,21.273,32.935,21.17,32,21.17c-7.604,0-13.79,6.187-13.79,13.79	c0,2.895,0.893,5.667,2.582,8.016c0.214,0.297,0.248,0.686,0.091,1.015l-2.521,5.28c-0.142,0.297-0.42,0.505-0.745,0.557	C17.565,49.836,17.513,49.84,17.46,49.84z M9.445,34.959l3.61,3.603c0.136,0.136,0.23,0.308,0.271,0.495	c0.638,2.921,1.97,5.656,3.882,7.99l1.62-3.396c-1.715-2.583-2.618-5.575-2.618-8.691c0-8.707,7.083-15.79,15.79-15.79	c0.88,0,1.78,0.079,2.683,0.236l2.415-2.878c-0.336-0.095-0.668-0.18-0.996-0.253c-0.185-0.041-0.354-0.134-0.487-0.268L32,12.402	l-3.614,3.605c-0.135,0.135-0.306,0.228-0.491,0.269c-7.266,1.597-12.983,7.318-14.568,14.576c-0.04,0.188-0.134,0.358-0.27,0.494	L9.445,34.959z"/></svg>